<svg xmlns="http://www.w3.org/2000/svg" width="216" height="216" viewBox="0 0 216 216" fill="white">
	<path d="M129.5 146C127.9 149.6 118.5 165.5 115 165.5L118 143.5L129.5 146Z" />
	<path d="M73.4736 115.514C73.4736 115.514 78.9736 118.684 81.8036 115.014C82.8036 113.714 79.4736 108.844 79.4736 108.844L78.1436 106.184C78.1436 106.184 87.5236 77.7737 89.4736 68.0137C91.4236 58.2537 93.6436 28.8437 93.6436 28.8437C93.6436 28.8437 101.254 70.8437 102.304 85.0137C103.244 97.6537 102.124 123.104 103.644 135.684C104.324 141.354 108.474 158.014 108.474 158.014C108.474 158.014 110.304 165.934 114.724 165.434C118.804 164.974 118.804 156.844 118.804 156.844L118.644 147.014C118.644 147.014 122.314 150.934 123.974 151.014C125.634 151.094 129.354 146.474 129.354 146.474C129.354 146.474 150.894 114.694 157.304 103.344C160.664 97.4137 166.924 85.2737 169.644 79.0137C172.644 72.0137 180.474 50.6837 180.474 50.6837C180.474 50.6837 173.594 102.784 171.474 117.764C169.164 134.124 165.424 159.764 163.974 176.184C163.354 183.234 163.304 204.514 163.304 204.514C163.304 204.514 162.974 211.344 165.804 212.014C168.174 212.574 169.804 208.514 169.804 208.514L189.804 105.514C189.804 105.514 194.184 71.0637 194.224 59.5137C194.224 50.8937 191.144 25.1837 191.144 25.1837C191.144 25.1837 191.224 16.7637 184.724 17.0137C181.884 17.1237 176.804 25.1837 176.804 25.1837L148.474 82.5137L118.804 133.844C118.804 133.844 118.924 104.694 118.144 95.0137C117.444 86.4137 113.144 60.8437 113.144 60.8437C113.144 60.8437 109.254 40.1337 106.974 33.5137C104.904 27.5137 96.1436 10.5137 96.1436 10.5137C96.1436 10.5137 91.9836 3.65369 89.7236 4.01369C87.4636 4.37369 85.8036 11.8437 85.8036 11.8437L76.8036 65.5137L67.1436 95.5137L57.1436 89.1837C57.1436 89.1837 50.5536 86.9937 49.3036 88.5137C48.0536 90.0337 51.4736 96.1837 51.4736 96.1837L73.4736 115.514Z" />
	<path d="M22.8036 211.014C28.5536 214.014 30.7236 208.514 30.7236 208.514L62.9736 145.764L69.2236 149.514C69.2236 149.514 72.9836 152.034 73.7236 151.304C74.4636 150.574 72.2636 146.934 72.2636 146.934L45.2636 115.264C45.2636 115.264 41.6836 112.824 38.5936 115.344C35.8436 117.594 38.0136 121.514 38.0136 121.514L51.2636 136.764L22.0136 201.764C22.0136 201.764 19.2736 209.164 22.8036 211.014Z" />
</svg>
